<svg width="57" height="57" viewBox="0 0 57 57" fill="none" xmlns="http://www.w3.org/2000/svg">
<circle cx="28.5" cy="28.5" r="28.5" fill="white"/>
<rect x="25.25" y="8.25" width="5.5" height="40.5" fill="white" stroke="black" stroke-width="2.5"/>
<path d="M21.9868 12.75H20.7368V14V21.1642V22.4142H21.9868H40.2115H40.7551L41.1258 22.0165L44.5822 18.3087L45.4052 17.4259L44.5518 16.5725L41.0954 13.1161L40.7293 12.75H40.2115H21.9868Z" fill="white" stroke="black" stroke-width="2.5"/>
<path d="M34.6812 38.9773L35.9312 38.9773L35.9312 37.7273L35.9312 30.5631L35.9312 29.3131L34.6812 29.3131L16.4565 29.3131L15.9128 29.3131L15.5421 29.7108L12.0857 33.4185L11.2628 34.3014L12.1162 35.1548L15.5726 38.6112L15.9387 38.9773L16.4565 38.9773L34.6812 38.9773Z" fill="white" stroke="black" stroke-width="2.5"/>
</svg>
